<?xml version="1.0" encoding="UTF-8" standalone="no"?>
<!DOCTYPE svg PUBLIC "-//W3C//DTD SVG 1.1//EN" "http://www.w3.org/Graphics/SVG/1.1/DTD/svg11.dtd">
<svg width="100%" height="100%" viewBox="0 0 346 245" version="1.1" xmlns="http://www.w3.org/2000/svg" xmlns:xlink="http://www.w3.org/1999/xlink" xml:space="preserve" xmlns:serif="http://www.serif.com/" style="fill-rule:evenodd;clip-rule:evenodd;stroke-linejoin:round;stroke-miterlimit:2;">
    <g transform="matrix(1,0,0,1,-1154.8,-2551.12)">
        <g transform="matrix(3.67871,0,0,3.66051,-8358.66,-347.046)">
            <path d="M2649.63,796.531C2666.39,796.531 2679.99,810.139 2679.99,826.896C2679.99,843.653 2666.39,857.261 2649.63,857.261C2632.87,857.261 2619.27,843.653 2619.27,826.896C2619.27,810.139 2632.87,796.531 2649.63,796.531ZM2649.63,799.232C2634.36,799.232 2621.96,811.626 2621.96,826.896C2621.96,842.167 2634.36,854.561 2649.63,854.561C2664.9,854.561 2677.3,842.167 2677.3,826.896C2677.3,811.626 2664.9,799.232 2649.63,799.232Z" style="fill:rgb(239,127,21);"/>
        </g>
        <g transform="matrix(3.99059,0,0,4.0488,-9298.48,-674.59)">
            <path d="M2667.29,851.358C2662.33,854.96 2656.22,857.086 2649.63,857.086C2632.98,857.086 2619.49,843.545 2619.49,826.896C2619.49,810.248 2632.98,796.707 2649.63,796.707C2657.28,796.707 2664.27,799.568 2669.58,804.276C2669.88,804.536 2669.64,803.878 2669.58,804.276C2669.53,804.673 2668.1,804.542 2666.77,804.943C2658.04,807.571 2650.67,818.577 2650.67,828.351C2650.67,837.264 2659.55,848.159 2667.29,851.358C2667.65,851.507 2667.76,849.945 2667.77,850.346C2667.79,850.747 2667.61,851.128 2667.29,851.358ZM2664.55,850.412C2657.66,845.558 2650.67,837.466 2650.67,828.351C2650.67,818.292 2658.64,809.54 2666.77,804.943C2662.04,801.253 2656.09,799.056 2649.63,799.056C2634.25,799.056 2621.74,811.518 2621.74,826.896C2621.74,842.275 2634.25,854.737 2649.63,854.737C2655.12,854.737 2660.24,853.151 2664.55,850.412Z" style="fill:rgb(37,36,36);"/>
        </g>
        <g transform="matrix(0.797708,0,0,1,-821.671,547.548)">
            <path d="M2890.06,2075.96C2894.95,2084.25 2898.79,2093.22 2901.4,2102.7L2901.4,2161.56C2898.79,2171.04 2894.95,2180.01 2890.06,2188.3L2890.06,2075.96Z" style="fill:rgb(239,127,21);"/>
        </g>
        <g transform="matrix(0.68357,0,0,1,-502.577,546.811)">
            <path d="M2858.68,2041.76C2865.26,2046.45 2871.3,2051.83 2876.7,2057.8L2876.7,2206.46C2871.3,2212.43 2865.26,2217.81 2858.68,2222.5L2858.68,2041.76Z" style="fill:rgb(239,127,21);"/>
        </g>
        <g transform="matrix(1,0,0,1,-1405.13,547.69)">
            <path d="M2802.38,2242.95C2799.51,2243.17 2796.61,2243.28 2793.69,2243.28C2732.04,2243.28 2682.01,2193.47 2682.01,2132.13C2682.01,2070.79 2732.04,2020.98 2793.69,2020.98C2796.61,2020.98 2799.51,2021.09 2802.38,2021.31L2802.38,2242.95ZM2749.91,2040.69C2715.61,2056.99 2691.89,2091.82 2691.89,2132.13C2691.89,2168.72 2711.44,2200.81 2740.71,2218.6C2769.8,2197.33 2788.64,2164.12 2788.89,2126.72C2789.12,2092.88 2774.1,2062.26 2749.91,2040.69Z" style="fill:rgb(239,127,21);"/>
        </g>
        <g transform="matrix(0.71114,0,0,0.985832,-589.871,578.646)">
            <path d="M2822.1,2024.61C2829.13,2026.45 2835.9,2028.96 2842.32,2032.06L2842.32,2232.2C2835.9,2235.3 2829.13,2237.81 2822.1,2239.65L2822.1,2024.61Z" style="fill:rgb(239,127,21);"/>
        </g>
    </g>
</svg>
